<svg width="31" height="32" viewBox="0 0 31 32" fill="none" xmlns="http://www.w3.org/2000/svg">
<path d="M29.0638 16.5892C29.0638 15.4741 28.9715 14.6603 28.7717 13.8165H15.7781V18.8496H23.4051C23.2513 20.1004 22.421 21.9841 20.5757 23.2499L20.5499 23.4184L24.6582 26.5374L24.9428 26.5652C27.5568 24.1993 29.0638 20.7182 29.0638 16.5892Z" fill="#4285F4"/>
<path d="M15.7773 29.8506C19.5139 29.8506 22.6507 28.645 24.942 26.5654L20.5749 23.25C19.4063 24.0487 17.8378 24.6063 15.7773 24.6063C12.1176 24.6063 9.01153 22.2404 7.90428 18.9703L7.74199 18.9838L3.47011 22.2238L3.41425 22.376C5.69001 26.8064 10.3646 29.8506 15.7773 29.8506Z" fill="#34A853"/>
<path d="M7.90508 18.9704C7.61292 18.1265 7.44384 17.2223 7.44384 16.2881C7.44384 15.3537 7.61292 14.4496 7.88971 13.6057L7.88197 13.426L3.55655 10.134L3.41503 10.1999C2.47707 12.0384 1.93887 14.103 1.93887 16.2881C1.93887 18.4731 2.47707 20.5376 3.41503 22.3761L7.90508 18.9704Z" fill="#FBBC05"/>
<path d="M15.7774 7.96972C18.3761 7.96972 20.129 9.06978 21.1286 9.98908L25.0343 6.25183C22.6356 4.06677 19.514 2.72559 15.7774 2.72559C10.3646 2.72559 5.69002 5.76959 3.41425 10.2L7.88894 13.6057C9.01156 10.3356 12.1177 7.96972 15.7774 7.96972Z" fill="#EB4335"/>
</svg>
